<?xml version="1.0" standalone="no"?>
<!DOCTYPE svg PUBLIC "-//W3C//DTD SVG 1.1//EN" "http://www.w3.org/Graphics/SVG/1.1/DTD/svg11.dtd">
<svg width="100%" height="100%" version="1.1" xmlns="http://www.w3.org/2000/svg">

  <line x1="1365" 
        y1="918" 
        x2="552" 
        y2="225" 
        style="stroke:rgb(179,0,255);stroke-width:2"/>
  <line x1="1365" 
        y1="918" 
        x2="345" 
        y2="-48" 
        style="stroke:rgb(223,0,255);stroke-width:2"/>
  <line x1="1365" 
        y1="918" 
        x2="999" 
        y2="327" 
        style="stroke:rgb(151,0,255);stroke-width:2"/>
  <line x1="1365" 
        y1="918" 
        x2="1191" 
        y2="27" 
        style="stroke:rgb(183,0,255);stroke-width:2"/>
  <line x1="1365" 
        y1="918" 
        x2="591" 
        y2="198" 
        style="stroke:rgb(171,0,255);stroke-width:2"/>
  <line x1="1365" 
        y1="918" 
        x2="1164" 
        y2="552" 
        style="stroke:rgb(151,0,255);stroke-width:2"/>
  <line x1="1365" 
        y1="918" 
        x2="1695" 
        y2="21" 
        style="stroke:rgb(167,0,255);stroke-width:2"/>
  <line x1="1365" 
        y1="918" 
        x2="846" 
        y2="702" 
        style="stroke:rgb(239,0,255);stroke-width:2"/>
  <line x1="1191" 
        y1="27" 
        x2="552" 
        y2="225" 
        style="stroke:rgb(191,0,255);stroke-width:2"/>
  <line x1="1191" 
        y1="27" 
        x2="1365" 
        y2="918" 
        style="stroke:rgb(171,0,255);stroke-width:2"/>
  <line x1="1191" 
        y1="27" 
        x2="345" 
        y2="-48" 
        style="stroke:rgb(167,0,255);stroke-width:2"/>
  <line x1="1191" 
        y1="27" 
        x2="537" 
        y2="-537" 
        style="stroke:rgb(243,0,255);stroke-width:2"/>
  <line x1="1191" 
        y1="27" 
        x2="999" 
        y2="327" 
        style="stroke:rgb(123,0,255);stroke-width:2"/>
  <line x1="1191" 
        y1="27" 
        x2="591" 
        y2="198" 
        style="stroke:rgb(219,0,255);stroke-width:2"/>
  <line x1="1191" 
        y1="27" 
        x2="1164" 
        y2="552" 
        style="stroke:rgb(195,0,255);stroke-width:2"/>
  <line x1="1191" 
        y1="27" 
        x2="1695" 
        y2="21" 
        style="stroke:rgb(127,0,255);stroke-width:2"/>
  <line x1="1191" 
        y1="27" 
        x2="846" 
        y2="702" 
        style="stroke:rgb(195,0,255);stroke-width:2"/>
  <line x1="999" 
        y1="327" 
        x2="513" 
        y2="279" 
        style="stroke:rgb(199,0,255);stroke-width:2"/>
  <line x1="999" 
        y1="327" 
        x2="552" 
        y2="225" 
        style="stroke:rgb(119,0,255);stroke-width:2"/>
  <line x1="999" 
        y1="327" 
        x2="1365" 
        y2="918" 
        style="stroke:rgb(131,0,255);stroke-width:2"/>
  <line x1="999" 
        y1="327" 
        x2="345" 
        y2="-48" 
        style="stroke:rgb(223,0,255);stroke-width:2"/>
  <line x1="999" 
        y1="327" 
        x2="1191" 
        y2="27" 
        style="stroke:rgb(115,0,255);stroke-width:2"/>
  <line x1="999" 
        y1="327" 
        x2="591" 
        y2="198" 
        style="stroke:rgb(151,0,255);stroke-width:2"/>
  <line x1="999" 
        y1="327" 
        x2="1164" 
        y2="552" 
        style="stroke:rgb(231,0,255);stroke-width:2"/>
  <line x1="999" 
        y1="327" 
        x2="1695" 
        y2="21" 
        style="stroke:rgb(167,0,255);stroke-width:2"/>
  <line x1="999" 
        y1="327" 
        x2="846" 
        y2="702" 
        style="stroke:rgb(147,0,255);stroke-width:2"/>
  <line x1="591" 
        y1="198" 
        x2="513" 
        y2="279" 
        style="stroke:rgb(191,0,255);stroke-width:2"/>
  <line x1="591" 
        y1="198" 
        x2="552" 
        y2="225" 
        style="stroke:rgb(123,0,255);stroke-width:2"/>
  <line x1="591" 
        y1="198" 
        x2="1365" 
        y2="918" 
        style="stroke:rgb(163,0,255);stroke-width:2"/>
  <line x1="591" 
        y1="198" 
        x2="999" 
        y2="327" 
        style="stroke:rgb(155,0,255);stroke-width:2"/>
  <line x1="591" 
        y1="198" 
        x2="1191" 
        y2="27" 
        style="stroke:rgb(235,0,255);stroke-width:2"/>
  <line x1="591" 
        y1="198" 
        x2="1164" 
        y2="552" 
        style="stroke:rgb(215,0,255);stroke-width:2"/>
  <line x1="591" 
        y1="198" 
        x2="1695" 
        y2="21" 
        style="stroke:rgb(243,0,255);stroke-width:2"/>
  <line x1="591" 
        y1="198" 
        x2="846" 
        y2="702" 
        style="stroke:rgb(183,0,255);stroke-width:2"/>
  <line x1="552" 
        y1="225" 
        x2="513" 
        y2="279" 
        style="stroke:rgb(123,0,255);stroke-width:2"/>
  <line x1="552" 
        y1="225" 
        x2="1365" 
        y2="918" 
        style="stroke:rgb(163,0,255);stroke-width:2"/>
  <line x1="552" 
        y1="225" 
        x2="345" 
        y2="-48" 
        style="stroke:rgb(131,0,255);stroke-width:2"/>
  <line x1="552" 
        y1="225" 
        x2="999" 
        y2="327" 
        style="stroke:rgb(119,0,255);stroke-width:2"/>
  <line x1="552" 
        y1="225" 
        x2="1191" 
        y2="27" 
        style="stroke:rgb(191,0,255);stroke-width:2"/>
  <line x1="552" 
        y1="225" 
        x2="591" 
        y2="198" 
        style="stroke:rgb(115,0,255);stroke-width:2"/>
  <line x1="552" 
        y1="225" 
        x2="1164" 
        y2="552" 
        style="stroke:rgb(215,0,255);stroke-width:2"/>
  <line x1="552" 
        y1="225" 
        x2="1695" 
        y2="21" 
        style="stroke:rgb(167,0,255);stroke-width:2"/>
  <line x1="552" 
        y1="225" 
        x2="846" 
        y2="702" 
        style="stroke:rgb(187,0,255);stroke-width:2"/>
  <line x1="345" 
        y1="-48" 
        x2="513" 
        y2="279" 
        style="stroke:rgb(223,0,255);stroke-width:2"/>
  <line x1="345" 
        y1="-48" 
        x2="552" 
        y2="225" 
        style="stroke:rgb(139,0,255);stroke-width:2"/>
  <line x1="345" 
        y1="-48" 
        x2="1365" 
        y2="918" 
        style="stroke:rgb(223,0,255);stroke-width:2"/>
  <line x1="345" 
        y1="-48" 
        x2="999" 
        y2="327" 
        style="stroke:rgb(231,0,255);stroke-width:2"/>
  <line x1="345" 
        y1="-48" 
        x2="1191" 
        y2="27" 
        style="stroke:rgb(175,0,255);stroke-width:2"/>
  <line x1="345" 
        y1="-48" 
        x2="1695" 
        y2="21" 
        style="stroke:rgb(211,0,255);stroke-width:2"/>
  <line x1="513" 
        y1="279" 
        x2="552" 
        y2="225" 
        style="stroke:rgb(127,0,255);stroke-width:2"/>
  <line x1="513" 
        y1="279" 
        x2="1365" 
        y2="918" 
        style="stroke:rgb(239,0,255);stroke-width:2"/>
  <line x1="513" 
        y1="279" 
        x2="345" 
        y2="-48" 
        style="stroke:rgb(203,0,255);stroke-width:2"/>
  <line x1="513" 
        y1="279" 
        x2="999" 
        y2="327" 
        style="stroke:rgb(191,0,255);stroke-width:2"/>
  <line x1="513" 
        y1="279" 
        x2="591" 
        y2="198" 
        style="stroke:rgb(187,0,255);stroke-width:2"/>
  <line x1="513" 
        y1="279" 
        x2="846" 
        y2="702" 
        style="stroke:rgb(235,0,255);stroke-width:2"/>
  <line x1="1695" 
        y1="21" 
        x2="552" 
        y2="225" 
        style="stroke:rgb(179,0,255);stroke-width:2"/>
  <line x1="1695" 
        y1="21" 
        x2="1365" 
        y2="918" 
        style="stroke:rgb(159,0,255);stroke-width:2"/>
  <line x1="1695" 
        y1="21" 
        x2="345" 
        y2="-48" 
        style="stroke:rgb(195,0,255);stroke-width:2"/>
  <line x1="1695" 
        y1="21" 
        x2="999" 
        y2="327" 
        style="stroke:rgb(175,0,255);stroke-width:2"/>
  <line x1="1695" 
        y1="21" 
        x2="1191" 
        y2="27" 
        style="stroke:rgb(135,0,255);stroke-width:2"/>
  <line x1="1695" 
        y1="21" 
        x2="591" 
        y2="198" 
        style="stroke:rgb(235,0,255);stroke-width:2"/>
  <line x1="1695" 
        y1="21" 
        x2="1164" 
        y2="552" 
        style="stroke:rgb(239,0,255);stroke-width:2"/>
  <line x1="1695" 
        y1="21" 
        x2="846" 
        y2="702" 
        style="stroke:rgb(227,0,255);stroke-width:2"/>
  <line x1="537" 
        y1="-537" 
        x2="1365" 
        y2="918" 
        style="stroke:rgb(251,0,255);stroke-width:2"/>
  <line x1="537" 
        y1="-537" 
        x2="345" 
        y2="-48" 
        style="stroke:rgb(247,0,255);stroke-width:2"/>
  <line x1="537" 
        y1="-537" 
        x2="1191" 
        y2="27" 
        style="stroke:rgb(243,0,255);stroke-width:2"/>
  <line x1="846" 
        y1="702" 
        x2="513" 
        y2="279" 
        style="stroke:rgb(235,0,255);stroke-width:2"/>
  <line x1="846" 
        y1="702" 
        x2="552" 
        y2="225" 
        style="stroke:rgb(195,0,255);stroke-width:2"/>
  <line x1="846" 
        y1="702" 
        x2="1365" 
        y2="918" 
        style="stroke:rgb(227,0,255);stroke-width:2"/>
  <line x1="846" 
        y1="702" 
        x2="999" 
        y2="327" 
        style="stroke:rgb(155,0,255);stroke-width:2"/>
  <line x1="846" 
        y1="702" 
        x2="1191" 
        y2="27" 
        style="stroke:rgb(195,0,255);stroke-width:2"/>
  <line x1="846" 
        y1="702" 
        x2="591" 
        y2="198" 
        style="stroke:rgb(183,0,255);stroke-width:2"/>
  <line x1="846" 
        y1="702" 
        x2="1164" 
        y2="552" 
        style="stroke:rgb(235,0,255);stroke-width:2"/>
  <line x1="846" 
        y1="702" 
        x2="1695" 
        y2="21" 
        style="stroke:rgb(235,0,255);stroke-width:2"/>
  <line x1="1164" 
        y1="552" 
        x2="552" 
        y2="225" 
        style="stroke:rgb(219,0,255);stroke-width:2"/>
  <line x1="1164" 
        y1="552" 
        x2="1365" 
        y2="918" 
        style="stroke:rgb(139,0,255);stroke-width:2"/>
  <line x1="1164" 
        y1="552" 
        x2="345" 
        y2="-48" 
        style="stroke:rgb(235,0,255);stroke-width:2"/>
  <line x1="1164" 
        y1="552" 
        x2="999" 
        y2="327" 
        style="stroke:rgb(219,0,255);stroke-width:2"/>
  <line x1="1164" 
        y1="552" 
        x2="1191" 
        y2="27" 
        style="stroke:rgb(199,0,255);stroke-width:2"/>
  <line x1="1164" 
        y1="552" 
        x2="591" 
        y2="198" 
        style="stroke:rgb(199,0,255);stroke-width:2"/>
  <line x1="1164" 
        y1="552" 
        x2="1695" 
        y2="21" 
        style="stroke:rgb(235,0,255);stroke-width:2"/>
  <line x1="1164" 
        y1="552" 
        x2="846" 
        y2="702" 
        style="stroke:rgb(227,0,255);stroke-width:2"/>

  <circle cx="1365" cy="918" r="10" stroke="black" stroke-width="2" fill="black"/>
  <circle cx="1191" cy="27" r="10" stroke="black" stroke-width="2" fill="black"/>
  <circle cx="999" cy="327" r="10" stroke="black" stroke-width="2" fill="black"/>
  <circle cx="591" cy="198" r="10" stroke="black" stroke-width="2" fill="black"/>
  <circle cx="552" cy="225" r="10" stroke="black" stroke-width="2" fill="black"/>
  <circle cx="345" cy="-48" r="10" stroke="black" stroke-width="2" fill="black"/>
  <circle cx="513" cy="279" r="10" stroke="black" stroke-width="2" fill="black"/>
  <circle cx="1695" cy="21" r="10" stroke="black" stroke-width="2" fill="black"/>
  <circle cx="537" cy="-537" r="10" stroke="black" stroke-width="2" fill="black"/>
  <circle cx="846" cy="702" r="10" stroke="black" stroke-width="2" fill="black"/>
  <circle cx="1164" cy="552" r="10" stroke="black" stroke-width="2" fill="black"/>
</svg> 
