<?xml version="1.0" standalone="no"?>
<!DOCTYPE svg PUBLIC "-//W3C//DTD SVG 1.1//EN" "http://www.w3.org/Graphics/SVG/1.1/DTD/svg11.dtd">
<svg width="100%" height="100%" version="1.1" xmlns="http://www.w3.org/2000/svg">

  <line x1="1383" 
        y1="924" 
        x2="537" 
        y2="210" 
        style="stroke:rgb(195,0,255);stroke-width:2"/>
  <line x1="1383" 
        y1="924" 
        x2="342" 
        y2="-39" 
        style="stroke:rgb(227,0,255);stroke-width:2"/>
  <line x1="1383" 
        y1="924" 
        x2="996" 
        y2="327" 
        style="stroke:rgb(155,0,255);stroke-width:2"/>
  <line x1="1383" 
        y1="924" 
        x2="1182" 
        y2="42" 
        style="stroke:rgb(191,0,255);stroke-width:2"/>
  <line x1="1383" 
        y1="924" 
        x2="594" 
        y2="192" 
        style="stroke:rgb(163,0,255);stroke-width:2"/>
  <line x1="1383" 
        y1="924" 
        x2="1683" 
        y2="15" 
        style="stroke:rgb(171,0,255);stroke-width:2"/>
  <line x1="1182" 
        y1="42" 
        x2="510" 
        y2="261" 
        style="stroke:rgb(239,0,255);stroke-width:2"/>
  <line x1="1182" 
        y1="42" 
        x2="537" 
        y2="210" 
        style="stroke:rgb(211,0,255);stroke-width:2"/>
  <line x1="1182" 
        y1="42" 
        x2="1383" 
        y2="924" 
        style="stroke:rgb(175,0,255);stroke-width:2"/>
  <line x1="1182" 
        y1="42" 
        x2="342" 
        y2="-39" 
        style="stroke:rgb(167,0,255);stroke-width:2"/>
  <line x1="1182" 
        y1="42" 
        x2="504" 
        y2="-456" 
        style="stroke:rgb(239,0,255);stroke-width:2"/>
  <line x1="1182" 
        y1="42" 
        x2="996" 
        y2="327" 
        style="stroke:rgb(127,0,255);stroke-width:2"/>
  <line x1="1182" 
        y1="42" 
        x2="594" 
        y2="192" 
        style="stroke:rgb(207,0,255);stroke-width:2"/>
  <line x1="1182" 
        y1="42" 
        x2="1683" 
        y2="15" 
        style="stroke:rgb(135,0,255);stroke-width:2"/>
  <line x1="1182" 
        y1="42" 
        x2="825" 
        y2="714" 
        style="stroke:rgb(203,0,255);stroke-width:2"/>
  <line x1="996" 
        y1="327" 
        x2="510" 
        y2="261" 
        style="stroke:rgb(183,0,255);stroke-width:2"/>
  <line x1="996" 
        y1="327" 
        x2="537" 
        y2="210" 
        style="stroke:rgb(127,0,255);stroke-width:2"/>
  <line x1="996" 
        y1="327" 
        x2="1383" 
        y2="924" 
        style="stroke:rgb(123,0,255);stroke-width:2"/>
  <line x1="996" 
        y1="327" 
        x2="342" 
        y2="-39" 
        style="stroke:rgb(211,0,255);stroke-width:2"/>
  <line x1="996" 
        y1="327" 
        x2="1182" 
        y2="42" 
        style="stroke:rgb(107,0,255);stroke-width:2"/>
  <line x1="996" 
        y1="327" 
        x2="594" 
        y2="192" 
        style="stroke:rgb(115,0,255);stroke-width:2"/>
  <line x1="996" 
        y1="327" 
        x2="1683" 
        y2="15" 
        style="stroke:rgb(155,0,255);stroke-width:2"/>
  <line x1="996" 
        y1="327" 
        x2="825" 
        y2="714" 
        style="stroke:rgb(139,0,255);stroke-width:2"/>
  <line x1="594" 
        y1="192" 
        x2="510" 
        y2="261" 
        style="stroke:rgb(171,0,255);stroke-width:2"/>
  <line x1="594" 
        y1="192" 
        x2="537" 
        y2="210" 
        style="stroke:rgb(99,0,255);stroke-width:2"/>
  <line x1="594" 
        y1="192" 
        x2="1383" 
        y2="924" 
        style="stroke:rgb(143,0,255);stroke-width:2"/>
  <line x1="594" 
        y1="192" 
        x2="996" 
        y2="327" 
        style="stroke:rgb(127,0,255);stroke-width:2"/>
  <line x1="594" 
        y1="192" 
        x2="1182" 
        y2="42" 
        style="stroke:rgb(219,0,255);stroke-width:2"/>
  <line x1="594" 
        y1="192" 
        x2="1683" 
        y2="15" 
        style="stroke:rgb(227,0,255);stroke-width:2"/>
  <line x1="594" 
        y1="192" 
        x2="825" 
        y2="714" 
        style="stroke:rgb(159,0,255);stroke-width:2"/>
  <line x1="537" 
        y1="210" 
        x2="510" 
        y2="261" 
        style="stroke:rgb(143,0,255);stroke-width:2"/>
  <line x1="537" 
        y1="210" 
        x2="1383" 
        y2="924" 
        style="stroke:rgb(179,0,255);stroke-width:2"/>
  <line x1="537" 
        y1="210" 
        x2="342" 
        y2="-39" 
        style="stroke:rgb(159,0,255);stroke-width:2"/>
  <line x1="537" 
        y1="210" 
        x2="996" 
        y2="327" 
        style="stroke:rgb(151,0,255);stroke-width:2"/>
  <line x1="537" 
        y1="210" 
        x2="1182" 
        y2="42" 
        style="stroke:rgb(215,0,255);stroke-width:2"/>
  <line x1="537" 
        y1="210" 
        x2="594" 
        y2="192" 
        style="stroke:rgb(111,0,255);stroke-width:2"/>
  <line x1="537" 
        y1="210" 
        x2="1683" 
        y2="15" 
        style="stroke:rgb(191,0,255);stroke-width:2"/>
  <line x1="537" 
        y1="210" 
        x2="825" 
        y2="714" 
        style="stroke:rgb(183,0,255);stroke-width:2"/>
  <line x1="342" 
        y1="-39" 
        x2="510" 
        y2="261" 
        style="stroke:rgb(227,0,255);stroke-width:2"/>
  <line x1="342" 
        y1="-39" 
        x2="537" 
        y2="210" 
        style="stroke:rgb(159,0,255);stroke-width:2"/>
  <line x1="342" 
        y1="-39" 
        x2="1383" 
        y2="924" 
        style="stroke:rgb(235,0,255);stroke-width:2"/>
  <line x1="342" 
        y1="-39" 
        x2="996" 
        y2="327" 
        style="stroke:rgb(235,0,255);stroke-width:2"/>
  <line x1="342" 
        y1="-39" 
        x2="1182" 
        y2="42" 
        style="stroke:rgb(171,0,255);stroke-width:2"/>
  <line x1="342" 
        y1="-39" 
        x2="1683" 
        y2="15" 
        style="stroke:rgb(211,0,255);stroke-width:2"/>
  <line x1="510" 
        y1="261" 
        x2="537" 
        y2="210" 
        style="stroke:rgb(139,0,255);stroke-width:2"/>
  <line x1="510" 
        y1="261" 
        x2="342" 
        y2="-39" 
        style="stroke:rgb(203,0,255);stroke-width:2"/>
  <line x1="510" 
        y1="261" 
        x2="996" 
        y2="327" 
        style="stroke:rgb(187,0,255);stroke-width:2"/>
  <line x1="510" 
        y1="261" 
        x2="594" 
        y2="192" 
        style="stroke:rgb(171,0,255);stroke-width:2"/>
  <line x1="510" 
        y1="261" 
        x2="1683" 
        y2="15" 
        style="stroke:rgb(251,0,255);stroke-width:2"/>
  <line x1="510" 
        y1="261" 
        x2="825" 
        y2="714" 
        style="stroke:rgb(247,0,255);stroke-width:2"/>
  <line x1="1683" 
        y1="15" 
        x2="537" 
        y2="210" 
        style="stroke:rgb(191,0,255);stroke-width:2"/>
  <line x1="1683" 
        y1="15" 
        x2="1383" 
        y2="924" 
        style="stroke:rgb(159,0,255);stroke-width:2"/>
  <line x1="1683" 
        y1="15" 
        x2="342" 
        y2="-39" 
        style="stroke:rgb(199,0,255);stroke-width:2"/>
  <line x1="1683" 
        y1="15" 
        x2="996" 
        y2="327" 
        style="stroke:rgb(171,0,255);stroke-width:2"/>
  <line x1="1683" 
        y1="15" 
        x2="1182" 
        y2="42" 
        style="stroke:rgb(135,0,255);stroke-width:2"/>
  <line x1="1683" 
        y1="15" 
        x2="594" 
        y2="192" 
        style="stroke:rgb(219,0,255);stroke-width:2"/>
  <line x1="1683" 
        y1="15" 
        x2="825" 
        y2="714" 
        style="stroke:rgb(235,0,255);stroke-width:2"/>
  <line x1="504" 
        y1="-456" 
        x2="342" 
        y2="-39" 
        style="stroke:rgb(247,0,255);stroke-width:2"/>
  <line x1="504" 
        y1="-456" 
        x2="1182" 
        y2="42" 
        style="stroke:rgb(243,0,255);stroke-width:2"/>
  <line x1="825" 
        y1="714" 
        x2="510" 
        y2="261" 
        style="stroke:rgb(247,0,255);stroke-width:2"/>
  <line x1="825" 
        y1="714" 
        x2="537" 
        y2="210" 
        style="stroke:rgb(183,0,255);stroke-width:2"/>
  <line x1="825" 
        y1="714" 
        x2="1383" 
        y2="924" 
        style="stroke:rgb(243,0,255);stroke-width:2"/>
  <line x1="825" 
        y1="714" 
        x2="996" 
        y2="327" 
        style="stroke:rgb(159,0,255);stroke-width:2"/>
  <line x1="825" 
        y1="714" 
        x2="1182" 
        y2="42" 
        style="stroke:rgb(203,0,255);stroke-width:2"/>
  <line x1="825" 
        y1="714" 
        x2="594" 
        y2="192" 
        style="stroke:rgb(171,0,255);stroke-width:2"/>
  <line x1="825" 
        y1="714" 
        x2="1683" 
        y2="15" 
        style="stroke:rgb(235,0,255);stroke-width:2"/>

  <circle cx="1383" cy="924" r="10" stroke="black" stroke-width="2" fill="black"/>
  <circle cx="1182" cy="42" r="10" stroke="black" stroke-width="2" fill="black"/>
  <circle cx="996" cy="327" r="10" stroke="black" stroke-width="2" fill="black"/>
  <circle cx="594" cy="192" r="10" stroke="black" stroke-width="2" fill="black"/>
  <circle cx="537" cy="210" r="10" stroke="black" stroke-width="2" fill="black"/>
  <circle cx="342" cy="-39" r="10" stroke="black" stroke-width="2" fill="black"/>
  <circle cx="510" cy="261" r="10" stroke="black" stroke-width="2" fill="black"/>
  <circle cx="1683" cy="15" r="10" stroke="black" stroke-width="2" fill="black"/>
  <circle cx="504" cy="-456" r="10" stroke="black" stroke-width="2" fill="black"/>
  <circle cx="825" cy="714" r="10" stroke="black" stroke-width="2" fill="black"/>
  <circle cx="1155" cy="552" r="10" stroke="black" stroke-width="2" fill="black"/>
</svg> 
